<svg width="198" height="197" viewBox="0 0 198 197" fill="none" xmlns="http://www.w3.org/2000/svg">
<circle cx="99.5" cy="98.5" r="98.5" fill="#FFA237"/>
<path d="M83.1832 86.625C82.7855 85.2424 82.2268 84.0208 81.5071 82.9602C80.7874 81.8807 79.9067 80.9716 78.8651 80.233C77.8423 79.4754 76.6681 78.8977 75.3423 78.5C74.0355 78.1023 72.5866 77.9034 70.9957 77.9034C68.0223 77.9034 65.4086 78.642 63.1548 80.1193C60.92 81.5966 59.1776 83.7462 57.9276 86.5682C56.6776 89.3712 56.0526 92.7992 56.0526 96.8523C56.0526 100.905 56.6681 104.352 57.8991 107.193C59.1302 110.034 60.8726 112.203 63.1264 113.699C65.3802 115.176 68.0412 115.915 71.1094 115.915C73.8935 115.915 76.2704 115.422 78.2401 114.438C80.2287 113.434 81.7438 112.023 82.7855 110.205C83.8461 108.386 84.3764 106.237 84.3764 103.756L86.8764 104.125H71.8764V94.8636H96.223V102.193C96.223 107.307 95.1435 111.701 92.9844 115.375C90.8253 119.03 87.8518 121.852 84.0639 123.841C80.276 125.811 75.9389 126.795 71.0526 126.795C65.598 126.795 60.8063 125.593 56.6776 123.188C52.5488 120.763 49.3291 117.326 47.0185 112.875C44.7268 108.405 43.581 103.102 43.581 96.9659C43.581 92.25 44.2628 88.0455 45.6264 84.3523C47.009 80.6402 48.9408 77.4962 51.4219 74.9205C53.9029 72.3447 56.7912 70.3845 60.0866 69.0398C63.3821 67.6951 66.9522 67.0227 70.7969 67.0227C74.0923 67.0227 77.1605 67.5057 80.0014 68.4716C82.8423 69.4186 85.3613 70.7633 87.5582 72.5057C89.7741 74.2481 91.5829 76.322 92.9844 78.7273C94.3859 81.1136 95.2855 83.7462 95.6832 86.625H83.1832ZM113.695 126H100.513L120.598 67.8182H136.45L156.507 126H143.325L128.751 81.1136H128.297L113.695 126ZM112.871 103.131H144.007V112.733H112.871V103.131Z" fill="#9D4B00"/>
</svg>
