<svg width="198" height="197" viewBox="0 0 198 197" fill="none" xmlns="http://www.w3.org/2000/svg">
<circle cx="98.5" cy="98.5" r="98.5" fill="#437500"/>
<path d="M86.3082 89.625C85.9105 88.2424 85.3518 87.0208 84.6321 85.9602C83.9124 84.8807 83.0317 83.9716 81.9901 83.233C80.9673 82.4754 79.7931 81.8977 78.4673 81.5C77.1605 81.1023 75.7116 80.9034 74.1207 80.9034C71.1473 80.9034 68.5336 81.642 66.2798 83.1193C64.045 84.5966 62.3026 86.7462 61.0526 89.5682C59.8026 92.3712 59.1776 95.7992 59.1776 99.8523C59.1776 103.905 59.7931 107.352 61.0241 110.193C62.2552 113.034 63.9976 115.203 66.2514 116.699C68.5052 118.176 71.1662 118.915 74.2344 118.915C77.0185 118.915 79.3954 118.422 81.3651 117.438C83.3537 116.434 84.8688 115.023 85.9105 113.205C86.9711 111.386 87.5014 109.237 87.5014 106.756L90.0014 107.125H75.0014V97.8636H99.348V105.193C99.348 110.307 98.2685 114.701 96.1094 118.375C93.9503 122.03 90.9768 124.852 87.1889 126.841C83.401 128.811 79.0639 129.795 74.1776 129.795C68.723 129.795 63.9313 128.593 59.8026 126.188C55.6738 123.763 52.4541 120.326 50.1435 115.875C47.8518 111.405 46.706 106.102 46.706 99.9659C46.706 95.25 47.3878 91.0455 48.7514 87.3523C50.134 83.6402 52.0658 80.4962 54.5469 77.9205C57.0279 75.3447 59.9162 73.3845 63.2116 72.0398C66.5071 70.6951 70.0772 70.0227 73.9219 70.0227C77.2173 70.0227 80.2855 70.5057 83.1264 71.4716C85.9673 72.4186 88.4863 73.7633 90.6832 75.5057C92.8991 77.2481 94.7079 79.322 96.1094 81.7273C97.5109 84.1136 98.4105 86.7462 98.8082 89.625H86.3082ZM108.588 129V70.8182H131.543C135.955 70.8182 139.715 71.661 142.821 73.3466C145.927 75.0133 148.295 77.3333 149.923 80.3068C151.571 83.2614 152.395 86.6705 152.395 90.5341C152.395 94.3977 151.562 97.8068 149.895 100.761C148.228 103.716 145.813 106.017 142.651 107.665C139.507 109.312 135.7 110.136 131.23 110.136H116.599V100.278H129.241C131.609 100.278 133.56 99.8712 135.094 99.0568C136.647 98.2235 137.802 97.0777 138.56 95.6193C139.336 94.142 139.724 92.447 139.724 90.5341C139.724 88.6023 139.336 86.9167 138.56 85.4773C137.802 84.0189 136.647 82.892 135.094 82.0966C133.541 81.2822 131.571 80.875 129.185 80.875H120.889V129H108.588Z" fill="#A3DBA9"/>
</svg>
