<svg width="198" height="197" viewBox="0 0 198 197" fill="none" xmlns="http://www.w3.org/2000/svg">
<circle cx="98.5" cy="98.5" r="98.5" fill="#FFB8B2"/>
<path d="M81.7209 70.8182H94.022V108.602C94.022 112.845 93.0088 116.557 90.9822 119.739C88.9747 122.92 86.1622 125.402 82.5447 127.182C78.9273 128.943 74.7133 129.824 69.9027 129.824C65.0732 129.824 60.8497 128.943 57.2322 127.182C53.6148 125.402 50.8023 122.92 48.7947 119.739C46.7872 116.557 45.7834 112.845 45.7834 108.602V70.8182H58.0845V107.551C58.0845 109.767 58.5675 111.737 59.5334 113.46C60.5182 115.184 61.9008 116.538 63.6811 117.523C65.4614 118.508 67.5353 119 69.9027 119C72.2891 119 74.3629 118.508 76.1243 117.523C77.9046 116.538 79.2777 115.184 80.2436 113.46C81.2285 111.737 81.7209 109.767 81.7209 107.551V70.8182ZM115.677 70.8182L127.41 90.6477H127.864L139.654 70.8182H153.546L135.79 99.9091L153.944 129H139.796L127.864 109.142H127.41L115.478 129H101.387L119.597 99.9091L101.728 70.8182H115.677Z" fill="#AC4444"/>
</svg>
