<svg width="198" height="197" viewBox="0 0 198 197" fill="none" xmlns="http://www.w3.org/2000/svg">
<circle cx="98.5" cy="98.5" r="98.5" fill="#424645"/>
<path d="M46.5284 129L29.8807 70.8182H43.3182L52.9489 111.244H53.4318L64.0568 70.8182H75.5625L86.1591 111.33H86.6705L96.3011 70.8182H109.739L93.0909 129H81.1023L70.0227 90.9602H69.5682L58.517 129H46.5284ZM152.26 70.8182H164.561V108.602C164.561 112.845 163.548 116.557 161.521 119.739C159.514 122.92 156.701 125.402 153.084 127.182C149.466 128.943 145.252 129.824 140.442 129.824C135.612 129.824 131.389 128.943 127.771 127.182C124.154 125.402 121.341 122.92 119.334 119.739C117.326 116.557 116.322 112.845 116.322 108.602V70.8182H128.624V107.551C128.624 109.767 129.107 111.737 130.072 113.46C131.057 115.184 132.44 116.538 134.22 117.523C136 118.508 138.074 119 140.442 119C142.828 119 144.902 118.508 146.663 117.523C148.444 116.538 149.817 115.184 150.783 113.46C151.768 111.737 152.26 109.767 152.26 107.551V70.8182Z" fill="#CECECE"/>
</svg>
